<svg width="1000" height="1000" viewBox="0 0 1000 1000" fill="none" xmlns="http://www.w3.org/2000/svg">
<path d="M146 486C157.6 449.6 188.833 398.5 203 377.5C170.5 355.167 116.769 338.343 84.5 291C59.2502 253.956 53.6447 201.76 46.5 175.5C101 182.5 215 166.333 279.5 150C295.645 150 313.5 192 313.5 192C313.5 192 423.145 150 481.645 150C531.145 150 622.5 176.5 663 192C669.5 174.667 692.145 150 695.5 150C711.902 150.001 765.5 171 814 182.5C852.8 191.7 922.167 186.333 952 182.5C950.5 186.833 945.5 199.7 937.5 216.5C927.5 237.5 902 302.5 877.5 325.5C857.9 343.9 794.667 367.833 765.5 377.5C783.334 401.833 823.5 461.9 841.5 507.5C864 564.5 843.5 588.5 841.5 637.5C839.5 686.5 796 731.5 765.5 767.5C735 803.5 671 850 627 874.5C583 899 536 910.5 516.5 912C497 913.5 447 908.5 416 902C385 895.5 284.5 842 213 785C141.5 728 146 681 130 613C114 545 131.5 531.5 146 486Z" fill="#FF8687" stroke="black" stroke-width="43"/>
<ellipse cx="367.5" cy="458" rx="26.5" ry="40" fill="black"/>
<ellipse cx="607.5" cy="458" rx="26.5" ry="40" fill="black"/>
<path d="M299 681C311.025 686.486 341.959 703.304 362.5 710.5M671 681C663.441 686.219 637.508 703.128 616 710.5M616 710.5C577.755 723.611 532.964 727.22 484 728.5C443.148 729.568 403.738 724.949 362.5 710.5M616 710.5C611 655.851 605.5 543 484 543C362.5 543 373.907 662.184 362.5 710.5" stroke="black" stroke-width="43" stroke-linecap="round" stroke-linejoin="round"/>
<ellipse cx="437.5" cy="646" rx="24.5" ry="27" fill="black"/>
<ellipse cx="537.5" cy="646" rx="24.5" ry="27" fill="black"/>
<path d="M400 779C424.5 793 452 815.864 494 813C536 810.136 561.167 792 583 779" stroke="black" stroke-width="43" stroke-linecap="round"/>
</svg>
